<svg width="50" height="50" viewBox="0 0 50 50" fill="none" xmlns="http://www.w3.org/2000/svg">
<path d="M0 31.8314L1.44306 27.8106L1.13105 32.2609L0.117005 34.3689L0 31.8314Z" fill="#35AADB"/>
<path d="M0.117005 34.3689L0.975039 32.378L8.85335 24.9219V38.0774L6.63026 41.5907L2.4961 39.4827L0.117005 34.3689Z" fill="#E5F0FA"/>
<path d="M2.5741 16.5679L8.85335 24.9219L0.975039 32.378L2.5741 16.5679Z" fill="#A9C6D8"/>
<path d="M2.5741 16.5679L11.5835 10.4391L17.5507 18.3636L12.9875 22.97L8.85335 24.9219L2.5741 16.5679Z" fill="#F6F7F7"/>
<path d="M13.6115 25.3122L15.0546 29.8796L8.85335 38.0774L13.6115 25.3122Z" fill="#DAEEFF"/>
<path d="M2.5741 16.5679L2.84711 15.7091L7.64431 9.65837L9.9064 8.91666L11.5835 10.4391L2.5741 16.5679Z" fill="#E8E8E8"/>
<path d="M9.9064 8.91666L14.3136 8.40918L11.5835 10.4391L9.9064 8.91666Z" fill="#FBFBFB"/>
<path d="M11.5835 10.4391L14.3136 8.40918L16.7707 10.6733L17.5507 18.3636L11.5835 10.4391Z" fill="white"/>
<path d="M16.7707 10.6733L25 10.1268V23.5165L17.5507 18.3636L16.7707 10.6733Z" fill="#F3F4F4"/>
<path d="M13.5725 25.3513L17.5507 18.3636L25 23.5165L23.5959 26.4834L19.0718 29.5283L17.0437 28.0839L15.0156 29.9186L13.5725 25.3513Z" fill="#C8DAEA"/>
<path d="M21.3339 24.4534C21.3339 25.7039 20.3211 26.7176 19.0718 26.7176C17.8224 26.7176 16.8097 25.7039 16.8097 24.4534C16.8097 23.203 17.8224 22.1893 19.0718 22.1893C20.3211 22.1893 21.3339 23.203 21.3339 24.4534Z" fill="#35AADB"/>
<path d="M8.85335 24.9219L17.5507 18.3636L13.5725 25.4294L8.85335 38.0774V24.9219Z" fill="white"/>
<path d="M50 31.8314L48.5569 27.8106L48.869 32.2609L49.883 34.3689L50 31.8314Z" fill="#35AADB"/>
<path d="M49.883 34.3689L49.025 32.378L41.1466 24.9219V38.0774L43.3697 41.5907L47.5039 39.4827L49.883 34.3689Z" fill="#E5F0FA"/>
<path d="M47.4259 16.5679L41.1466 24.9219L49.025 32.378L47.4259 16.5679Z" fill="#A9C6D8"/>
<path d="M47.4259 16.5679L38.4165 10.4391L32.4493 18.3636L37.0125 22.97L41.1466 24.9219L47.4259 16.5679Z" fill="#F6F7F7"/>
<path d="M36.3885 25.3122L34.9454 29.8796L41.1466 38.0774L36.3885 25.3122Z" fill="#DAEEFF"/>
<path d="M47.4259 16.5679L47.1529 15.7091L42.3557 9.65837L40.0936 8.91666L38.4165 10.4391L47.4259 16.5679Z" fill="#E8E8E8"/>
<path d="M40.0936 8.91666L35.6864 8.40918L38.4165 10.4391L40.0936 8.91666Z" fill="#FBFBFB"/>
<path d="M38.4165 10.4391L35.6864 8.40918L33.2293 10.6733L32.4493 18.3636L38.4165 10.4391Z" fill="#EAEAEA"/>
<path d="M33.2293 10.6733L25 10.1268V23.5165L32.4493 18.3636L33.2293 10.6733Z" fill="white"/>
<path d="M36.4275 25.3513L32.4493 18.3636L25 23.5165L26.4041 26.4834L30.9282 29.5283L32.9563 28.0839L34.9844 29.9186L36.4275 25.3513Z" fill="#C8DAEA"/>
<path d="M32.4883 24.4534C32.4883 25.7039 31.4755 26.7176 30.2262 26.7176C28.9769 26.7176 27.9641 25.7039 27.9641 24.4534C27.9641 23.203 28.9769 22.1893 30.2262 22.1893C31.4755 22.1893 32.4883 23.203 32.4883 24.4534Z" fill="#35AADB"/>
<path d="M38.8846 17.5829C38.8846 18.1434 38.4306 18.5979 37.8705 18.5979C37.3105 18.5979 36.8565 18.1434 36.8565 17.5829C36.8565 17.0223 37.3105 16.5679 37.8705 16.5679C38.4306 16.5679 38.8846 17.0223 38.8846 17.5829Z" fill="#35AADB"/>
<path d="M43.2527 17.5829C43.2527 18.1434 42.7987 18.5979 42.2387 18.5979C41.6786 18.5979 41.2246 18.1434 41.2246 17.5829C41.2246 17.0223 41.6786 16.5679 42.2387 16.5679C42.7987 16.5679 43.2527 17.0223 43.2527 17.5829Z" fill="#35AADB"/>
<path d="M41.0686 15.3968C41.0686 15.9574 40.6146 16.4118 40.0546 16.4118C39.4946 16.4118 39.0406 15.9574 39.0406 15.3968C39.0406 14.8363 39.4946 14.3819 40.0546 14.3819C40.6146 14.3819 41.0686 14.8363 41.0686 15.3968Z" fill="#35AADB"/>
<path d="M41.0686 19.6128C41.0686 20.1734 40.6146 20.6278 40.0546 20.6278C39.4946 20.6278 39.0406 20.1734 39.0406 19.6128C39.0406 19.0523 39.4946 18.5979 40.0546 18.5979C40.6146 18.5979 41.0686 19.0523 41.0686 19.6128Z" fill="#35AADB"/>
<path d="M41.1466 24.9219L32.4493 18.3636L36.4275 25.4294L41.1466 38.0774V24.9219Z" fill="white"/>
<path d="M9.00936 14.9284C9.00936 14.6265 9.25382 14.3819 9.55538 14.3819H10.4914C10.793 14.3819 11.0374 14.6265 11.0374 14.9284V20.0813C11.0374 20.3831 10.793 20.6278 10.4914 20.6278H9.55538C9.25382 20.6278 9.00936 20.3831 9.00936 20.0813V14.9284Z" fill="#35AADB"/>
<path d="M12.6755 16.5679C12.9771 16.5679 13.2215 16.8126 13.2215 17.1145V18.0513C13.2215 18.3532 12.9771 18.5979 12.6755 18.5979H7.37129C7.06974 18.5979 6.82527 18.3532 6.82527 18.0513V17.1145C6.82527 16.8126 7.06974 16.5679 7.37129 16.5679H12.6755Z" fill="#35AADB"/>
</svg>
